<svg xmlns="http://www.w3.org/2000/svg" width="61" height="61" fill="none"><g fill="#292D32"><path d="M30.5 56.12c-.762 0-1.525-.177-2.16-.533-4.753-2.592-13.115-5.337-18.351-6.024l-.737-.101c-3.33-.407-6.075-3.533-6.075-6.914V11.845c0-2.008.788-3.838 2.237-5.16a6.872 6.872 0 0 1 5.312-1.779c5.592.432 14.03 3.228 18.808 6.227l.61.356c.178.102.56.102.712.026l.407-.255c4.778-2.999 13.216-5.845 18.833-6.328h.305c1.856-.178 3.762.483 5.185 1.804 1.45 1.322 2.237 3.152 2.237 5.16v30.678c0 3.406-2.745 6.507-6.1 6.913l-.839.102c-5.236.686-13.623 3.456-18.274 6.024-.61.355-1.347.508-2.11.508ZM10.116 8.694c-.813 0-1.55.28-2.135.814-.635.584-.991 1.423-.991 2.338v30.703c0 1.5 1.296 2.949 2.745 3.152l.762.102c5.719.762 14.488 3.634 19.571 6.405.229.101.56.127.686.076 5.084-2.821 13.903-5.719 19.647-6.481l.865-.102c1.448-.178 2.745-1.652 2.745-3.152V11.87c0-.94-.356-1.753-.992-2.363-.66-.585-1.5-.864-2.44-.814h-.305c-4.854.432-12.683 3.05-16.953 5.72l-.406.279c-1.398.864-3.38.864-4.728.025l-.61-.356c-4.346-2.668-12.174-5.26-17.156-5.668h-.305Z"/><path d="M30.5 53.984a1.92 1.92 0 0 1-1.906-1.906V13.953a1.92 1.92 0 0 1 1.906-1.906 1.92 1.92 0 0 1 1.906 1.906v38.125a1.904 1.904 0 0 1-1.906 1.906Zm-10.802-30.5h-5.719a1.92 1.92 0 0 1-1.906-1.906 1.92 1.92 0 0 1 1.906-1.906h5.719a1.92 1.92 0 0 1 1.906 1.906 1.92 1.92 0 0 1-1.906 1.906Zm1.906 7.626h-7.625a1.92 1.92 0 0 1-1.906-1.907 1.92 1.92 0 0 1 1.906-1.906h7.625a1.92 1.92 0 0 1 1.906 1.906 1.92 1.92 0 0 1-1.906 1.906Z"/></g></svg>