<svg xmlns="http://www.w3.org/2000/svg" width="61" height="61" fill="none"><path fill="#000" d="M53.82 7.625a4.64 4.64 0 0 1 3.278 1.362 4.65 4.65 0 0 1 1.36 3.281v29.635a4.651 4.651 0 0 1-4.637 4.643H7.179a4.64 4.64 0 0 1-3.277-1.362 4.654 4.654 0 0 1-1.36-3.281V12.268a4.655 4.655 0 0 1 1.36-3.28 4.643 4.643 0 0 1 3.277-1.363H53.82Zm0 3.414H7.18a1.236 1.236 0 0 0-1.228 1.23v29.634a1.236 1.236 0 0 0 1.228 1.23h46.64a1.236 1.236 0 0 0 1.228-1.23V12.268a1.236 1.236 0 0 0-1.228-1.23Zm-20.296 6.208c.699.238 1.079 1.015.847 1.734l-5.607 17.458c-.232.72-.986 1.11-1.685.873-.7-.238-1.08-1.015-.848-1.734l5.607-17.458c.232-.72.986-1.11 1.686-.873Zm6.93 4.462 4.502 4.607a1.4 1.4 0 0 1 0 1.946l-4.59 4.698a1.308 1.308 0 0 1-1.887-.005 1.402 1.402 0 0 1 .005-1.942l3.64-3.725-3.55-3.633a1.401 1.401 0 0 1-.073-1.865l.067-.076a1.308 1.308 0 0 1 1.887-.005Zm-20.16 0a1.308 1.308 0 0 1 1.887.005l.067.076c.451.54.426 1.355-.072 1.865l-3.551 3.633 3.64 3.725c.522.535.524 1.404.005 1.942-.52.537-1.364.54-1.886.005l-4.591-4.698a1.4 1.4 0 0 1 0-1.946l4.501-4.607ZM40.73 49.961H20.272a1.706 1.706 0 0 0 0 3.414h20.457a1.706 1.706 0 0 0 0-3.414Z"/></svg>